<?xml version="1.0" standalone="no"?><!DOCTYPE svg PUBLIC "-//W3C//DTD SVG 1.1//EN" "http://www.w3.org/Graphics/SVG/1.1/DTD/svg11.dtd"><svg t="1504752794202" class="icon" style="" viewBox="0 0 1024 1024" version="1.1" xmlns="http://www.w3.org/2000/svg" p-id="10176" xmlns:xlink="http://www.w3.org/1999/xlink" width="32" height="32"><defs><style type="text/css"></style></defs><path d="M433.783191 469.801666c-134.620927 6.20979-243.456736 78.341484-243.456736 168.2889 0 89.816105 108.835809 157.359111 243.456736 151.071573 134.730253-6.162622 243.793708-90.473459 243.793708-180.321342C677.576899 519.127623 568.507048 463.591877 433.783191 469.801666L433.783191 469.801666zM525.511 696.067458c-41.236242 53.201729-122.811734 79.17392-202.017232 36.272008-37.69924-20.441341-36.323373-60.6189-36.323373-60.6189s-15.64899-126.82861 119.758204-142.685459C542.540254 513.308169 566.741845 642.809767 525.511 696.067458L525.511 696.067458zM434.69857 611.121252c-8.67272 6.292933-10.444319 18.294596-5.739509 25.790514 4.536524 7.678594 15.070582 8.56979 23.61299 2.171927 8.39171-6.631904 11.63651-18.133905 7.105582-25.812299C455.14111 605.803857 444.738363 603.652715 434.69857 611.121252L434.69857 611.121252zM370.512089 628.578016c-25.301645 2.620423-43.388383 24.634498-43.388383 45.730994 0 21.128275 20.363793 35.724179 45.643654 32.765785 25.186723-2.886043 45.685225-22.331259 45.685225-43.402573C418.452385 642.523161 399.552999 625.795902 370.512089 628.578016L370.512089 628.578016zM844.505321 33.945177 179.501394 33.945177c-80.39869 0-145.565107 65.155425-145.565107 145.565107l0 664.976546c0 80.408483 65.166417 145.564907 145.565107 145.564907l665.003927 0c80.39869 0 145.555313-65.155425 145.555313-145.564907l0-664.976546C990.060635 99.101801 924.904011 33.945177 844.505321 33.945177L844.505321 33.945177zM797.920106 668.496351C742.384559 786.379027 559.365046 843.752928 423.744597 833.138124c-128.896808-10.142523-294.615651-52.99407-311.743438-208.96732 0 0-9.058658-70.631312 59.442098-162.046333 0 0 98.505213-137.573725 213.222835-176.836905 114.846534-39.047726 128.239454 27.046063 128.239454 66.125567-6.089471 33.15632-17.533512 52.6549 25.566266 39.26218 0 0 112.914044-52.337915 159.337569-5.923184 37.505771 37.505771 6.189004 89.112981 6.189004 89.112981s-15.518878 17.191144 16.470433 23.380148C752.547669 503.66111 853.3869 550.392826 797.920106 668.496351L797.920106 668.496351zM686.610374 342.766396c-12.293665 0-22.159576-9.933665-22.159576-22.150782 0-12.392198 9.865911-22.352045 22.159576-22.352045 0 0 138.397367-25.556473 121.831798 123.128919 0 0.864014-0.109326 1.546352-0.301795 2.333818-1.568337 10.531859-10.82606 18.632567-21.727469 18.632567-12.32984 0-22.353045-9.854918-22.353045-22.175965C764.055267 420.189304 785.979602 320.830869 686.610374 342.766396L686.610374 342.766396zM920.511989 461.675776l-0.166287 0c-3.646128 25.13316-16.132462 27.155389-31.019169 27.155389-17.783743 0-32.19817-11.168428-32.19817-28.988346 0-15.409552 6.391267-31.083725 6.391267-31.083725 1.916101-6.500593 16.956104-46.860828-9.933665-107.194322-49.180456-82.663754-148.300252-83.866738-159.990327-79.127951-11.808194 4.590088-29.239975 6.943692-29.239975 6.943692-17.898665 0-32.249535-14.568523-32.249535-32.286909 0-14.860525 9.933665-27.441994 23.482879-31.295981 0 0 0.302995-0.494265 0.797259-0.599394 0.97334-0.214455 1.968665-1.183398 3.041538-1.260945 13.813834-2.672788 63.005282-12.318848 110.82526-1.125437C855.856225 202.811686 973.348566 285.552987 920.511989 461.675776L920.511989 461.675776z" p-id="10177" fill="#ffffff"></path></svg>