<?xml version="1.0" standalone="no"?><!DOCTYPE svg PUBLIC "-//W3C//DTD SVG 1.1//EN" "http://www.w3.org/Graphics/SVG/1.1/DTD/svg11.dtd"><svg class="icon" width="200px" height="200.00px" viewBox="0 0 1024 1024" version="1.1" xmlns="http://www.w3.org/2000/svg"><path fill="#333333" d="M512 1016c-277.6 0-504-226.4-504-504s226.4-504 504-504 504 226.4 504 504-226.4 504-504 504z m0-960c-251.2 0-456 204.8-456 456s204.8 456 456 456 456-204.8 456-456-204.8-456-456-456zM525.6 760.8c-36-0.8-66.4-4-89.6-10.4-21.6-7.2-42.4-21.6-60-42.4-7.2-9.6-15.2-14.4-21.6-14.4-13.6 0-36.8 26.4-68.8 79.2l-31.2-28c31.2-48 58.4-77.6 82.4-88v-175.2h-82.4v-38.4h120.8v216c4.8 3.2 8.8 8 13.6 13.6 13.6 16.8 28.8 28.8 44 36.8 17.6 8 43.2 12.8 76.8 13.6 29.6 0.8 67.2 0.8 112 0.8 28 0 55.2-0.8 84-0.8 28-0.8 50.4-1.6 64.8-2.4l-9.6 40h-134.4c-31.2 0.8-64.8 0.8-100.8 0z m-135.2-416.8l-29.6 29.6c-23.2-28.8-55.2-60.8-96-93.6l28-27.2c38.4 30.4 71.2 60.8 97.6 91.2z m352-57.6c-74.4 19.2-156.8 30.4-248 32.8l0.8 66.4h241.6v29.6c-16.8 54.4-40 101.6-71.2 144 34.4 32 66.4 64.8 95.2 98.4l-28 32.8c-27.2-34.4-57.6-68-91.2-100-36 41.6-80 76.8-132 105.6l-24.8-32.8c50.4-28 92.8-60.8 127.2-100-32-28.8-66.4-56-104-82.4l24-29.6c36.8 25.6 72 52.8 104 80.8 24.8-33.6 44-71.2 58.4-111.2h-200.8c-3.2 112.8-22.4 197.6-58.4 255.2l-37.6-18.4c36.8-58.4 56.8-141.6 58.4-248v-126.4c104.8-2.4 193.6-13.6 265.6-32l20.8 35.2z" /></svg>