<?xml version="1.0" standalone="no"?><!DOCTYPE svg PUBLIC "-//W3C//DTD SVG 1.1//EN" "http://www.w3.org/Graphics/SVG/1.1/DTD/svg11.dtd"><svg class="icon" width="32px" height="32.00px" viewBox="0 0 1024 1024" version="1.1" xmlns="http://www.w3.org/2000/svg"><path fill="#ffd801" d="M949.669267 98.250785a223.47456 223.47456 0 0 0-142.722779-94.182545 223.586018 223.586018 0 0 0-167.410867 34.384988L337.315537 242.97982a223.251642 223.251642 0 0 0-59.630369 310.133647c64.924654 96.021613 191.151556 123.886271 290.851303 69.438729l-0.445834-0.891669c2.173443-1.114586 4.458345-1.393233 6.631788-2.842195a39.456356 39.456356 0 1 0-40.73813-67.655391h-0.111459l-0.501564-0.947398c-65.593406 39.512085-147.236854 27.586012-190.705721-36.72562a145.787892 145.787892 0 0 1 39.010522-202.687524l296.145588-200.514081a146.177997 146.177997 0 0 1 202.743254 39.12198c45.252205 66.763721 30.706853 145.899351-36.112597 191.151556l-45.196476 31.375605a40.515213 40.515213 0 0 0 45.419393 67.098097c0.445835-0.222917 0.557293-0.668752 0.947398-0.891669l44.304807-29.926643A223.363101 223.363101 0 0 0 949.669267 98.250785zM445.430411 396.792734l0.557293 0.947399c-2.229173 1.114586-4.569804 1.448962-6.631789 3.009383a39.289168 39.289168 0 0 0 2.897925 68.212683 39.400627 39.400627 0 0 0 39.400627-1.671879l0.111458 0.167188 0.557293 0.78021c64.646007-41.128236 146.512373-31.264147 191.597391 32.044357a145.899351 145.899351 0 0 1-33.994883 203.579194l-291.297138 207.703163a146.01081 146.01081 0 0 1-203.579194-33.994883c-46.812626-65.649135-34.27353-145.11914 31.431335-191.876037l44.360536-32.713109a40.515213 40.515213 0 1 0-47.035543-65.872052c-0.390105 0.167188-0.501564 0.613022-0.891669 0.835939l-43.580326 31.04123a223.251642 223.251642 0 0 0 259.252781 363.466603l297.148716-212.05005a223.028725 223.028725 0 0 0 52.16264-311.359692C670.521121 364.692648 543.792655 340.004561 445.430411 396.792734z" /></svg>