<?xml version="1.0" standalone="no"?><!DOCTYPE svg PUBLIC "-//W3C//DTD SVG 1.1//EN" "http://www.w3.org/Graphics/SVG/1.1/DTD/svg11.dtd"><svg class="icon" width="32px" height="32.00px" viewBox="0 0 1024 1024" version="1.1" xmlns="http://www.w3.org/2000/svg"><path fill="#ffd801" d="M931.26496 866.688c0 58.304-46.912 105.6-103.616 105.6H188.99296c-56.64 0-102.528-47.296-102.528-105.6V156.352c0-57.792 45.888-104.64 102.528-104.64h638.72c56.64 0 103.552 46.848 103.552 104.64v710.336zM836.73696 0H187.32896C145.92096 0 106.88096 16.128 77.56896 45.504A155.84 155.84 0 0 0 32.00096 156.352v710.336C32.00096 953.408 101.69696 1024 187.32896 1024h649.408C922.49696 1024 992.00096 953.408 992.00096 866.688V156.352A155.712 155.712 0 0 0 836.73696 0z"  /><path fill="#ffd801" d="M192.00096 343.168v-62.528h453.312v62.528H192.00096z m0 403.328v-62.528h453.312v62.528H192.00096z m0-201.664v-62.528h618.24v62.528H192.00096z"  /></svg>