<?xml version="1.0" standalone="no"?><!DOCTYPE svg PUBLIC "-//W3C//DTD SVG 1.1//EN" "http://www.w3.org/Graphics/SVG/1.1/DTD/svg11.dtd"><svg t="1504713888093" class="icon" style="" viewBox="0 0 1366 1024" version="1.1" xmlns="http://www.w3.org/2000/svg" p-id="7642" xmlns:xlink="http://www.w3.org/1999/xlink" width="42.6875" height="32"><defs><style type="text/css"></style></defs><path d="M1262.933333 0l-1160.533333 0c-56.456533 0-102.4 45.943467-102.4 102.4l0 819.2c0 56.456533 45.943467 102.4 102.4 102.4l1160.533333 0c56.456533 0 102.4-45.943467 102.4-102.4l0-819.2C1365.333333 45.943467 1319.389867 0 1262.933333 0zM1297.066667 921.6c0 18.8416-15.291733 34.133333-34.133333 34.133333l-1160.533333 0c-18.807467 0-34.133333-15.291733-34.133333-34.133333l0-819.2c0-18.807467 15.325867-34.133333 34.133333-34.133333l1160.533333 0c18.8416 0 34.133333 15.325867 34.133333 34.133333L1297.066667 921.6zM273.066667 273.066667l819.2 0 0 68.266667-819.2 0L273.066667 273.066667zM273.066667 648.533333 614.4 648.533333l0 68.266667-341.333333 0L273.066667 648.533333z" p-id="7643" fill="#ffd801"></path></svg>