<?xml version="1.0" standalone="no"?><!DOCTYPE svg PUBLIC "-//W3C//DTD SVG 1.1//EN" "http://www.w3.org/Graphics/SVG/1.1/DTD/svg11.dtd"><svg class="icon" width="32px" height="32.00px" viewBox="0 0 1024 1024" version="1.1" xmlns="http://www.w3.org/2000/svg"><path fill="#ffd801" d="M977.344 796.416c0 11.84-2.176 27.328-6.656 46.528-4.416 19.264-9.024 34.304-13.888 45.312-9.28 22.08-36.224 45.376-80.64 70.016-41.408 22.528-82.432 33.728-123.008 33.728-11.84 0-23.424-0.704-34.688-2.304-11.328-1.536-23.936-4.224-38.016-8.192-14.144-3.968-24.576-7.232-31.424-9.6-6.784-2.368-19.008-6.976-36.672-13.632-17.536-6.592-28.352-10.56-32.384-11.904-43.136-15.424-81.728-33.6-115.712-54.784-56.384-34.752-114.688-82.368-174.784-142.464-60.16-60.16-107.648-118.464-142.464-174.848-21.12-33.856-39.424-72.448-54.848-115.648C90.88 454.656 86.976 443.84 80.384 426.24 73.728 408.576 69.248 396.352 66.816 389.504 64.384 382.72 61.184 372.224 57.28 358.144c-4.032-14.08-6.72-26.752-8.256-38.016C47.424 308.928 46.656 297.344 46.656 285.44c0-40.576 11.2-81.536 33.728-122.944 24.704-44.544 48-71.424 70.016-80.64 11.008-4.864 26.112-9.472 45.312-13.888 19.2-4.352 34.752-6.592 46.656-6.592 6.208 0 10.816 0.64 13.888 1.984C264.128 65.984 275.776 82.688 291.2 113.536c4.864 8.448 11.456 20.288 19.904 35.712 8.32 15.424 16 29.376 23.104 41.984 7.04 12.544 13.888 24.32 20.48 35.328 1.344 1.792 5.184 7.232 11.584 16.512 6.4 9.28 11.136 17.152 14.208 23.488 3.072 6.4 4.608 12.672 4.608 18.88 0 8.832-6.272 19.84-18.816 33.088-12.544 13.184-26.24 25.344-41.024 36.352-14.72 11.008-28.416 22.656-40.96 35.008C271.744 402.24 265.408 412.352 265.408 420.288c0 3.968 1.152 8.896 3.328 14.848 2.24 5.952 4.096 10.496 5.632 13.568 1.536 3.072 4.608 8.384 9.28 15.872C288.256 472 290.752 476.224 291.2 477.12c33.472 60.352 71.808 112.128 115.008 155.328 43.2 43.264 94.976 81.472 155.328 115.072 0.896 0.384 5.056 2.944 12.608 7.552 7.424 4.608 12.736 7.68 15.808 9.28s7.616 3.456 13.568 5.632 10.88 3.264 14.848 3.264c7.936 0 18.048-6.272 30.4-18.752 12.352-12.608 24-26.24 35.072-41.088 11.008-14.72 23.04-28.416 36.352-40.96 13.12-12.544 24.192-18.816 33.024-18.816 6.208 0 12.48 1.472 18.816 4.608 6.528 3.136 14.272 7.808 23.488 14.208 9.28 6.464 14.72 10.24 16.512 11.648 11.072 6.528 22.848 13.376 35.456 20.416s26.496 14.72 41.92 23.104 27.264 14.976 35.712 19.904c30.848 15.36 47.616 27.072 50.176 35.008C976.768 785.536 977.344 790.208 977.344 796.416z" /></svg>