<?xml version="1.0" standalone="no"?><!DOCTYPE svg PUBLIC "-//W3C//DTD SVG 1.1//EN" "http://www.w3.org/Graphics/SVG/1.1/DTD/svg11.dtd"><svg class="icon" width="200px" height="200.00px" viewBox="0 0 1024 1024" version="1.1" xmlns="http://www.w3.org/2000/svg"><path fill="#333333" d="M940.473483 1024H83.526517A71.033676 71.033676 0 0 1 12.492841 952.966324V376.230692a71.033676 71.033676 0 0 1 29.941521-58.024602L473.385763 13.009074a71.033676 71.033676 0 0 1 82.597298 0l425.78907 305.403509a71.240169 71.240169 0 0 1 29.735028 57.818109v576.735632a71.033676 71.033676 0 0 1-71.033676 71.033676zM514.477919 41.298649a29.528534 29.528534 0 0 0-17.138939 5.368824L66.387578 352.070982A29.735027 29.735027 0 0 0 53.79149 376.230692v576.735632a29.735027 29.735027 0 0 0 29.735027 29.735027h856.946966a29.735027 29.735027 0 0 0 29.735027-29.735027V376.024198a29.735027 29.735027 0 0 0-12.389595-24.159709L531.616858 46.873967a29.528534 29.528534 0 0 0-17.138939-5.575318zM512.206493 598.21093a70.827183 70.827183 0 0 1-30.973986-7.227264L24.262956 368.383948l18.171406-37.168784 456.556564 223.012705a29.528534 29.528534 0 0 0 26.018148 0l456.763057-222.599718 18.171406 37.168784-456.96955 222.186731a70.827183 70.827183 0 0 1-30.767494 7.227264z" /></svg>