<?xml version="1.0" standalone="no"?><!DOCTYPE svg PUBLIC "-//W3C//DTD SVG 1.1//EN" "http://www.w3.org/Graphics/SVG/1.1/DTD/svg11.dtd"><svg class="icon" width="32px" height="32.00px" viewBox="0 0 1024 1024" version="1.1" xmlns="http://www.w3.org/2000/svg"><path fill="#ffd801" d="M495.36 64c-247.424 0-448 200.576-448 448s200.576 448 448 448 448-200.576 448-448S742.784 64 495.36 64zM559.36 832l-128 0 0-128 128 0L559.36 832zM672.96 418.432C659.84 439.168 631.744 467.456 588.736 503.168 566.528 521.664 552.704 536.576 547.328 547.84S539.52 579.2 540.032 608.192L444.352 608.192C444.096 594.432 444.032 586.048 444.032 583.04c0-30.976 5.12-56.512 15.36-76.48s30.72-42.496 61.504-67.52S569.984 397.696 576 389.952C585.28 377.664 589.888 364.16 589.888 349.44c0-20.48-8.192-38.016-24.576-52.608S526.848 274.816 499.136 274.816c-26.752 0-49.152 7.616-67.136 22.848s-30.4 38.528-37.12 69.76L298.112 355.456c2.752-44.736 21.824-82.752 57.216-113.984S437.12 194.56 494.656 194.56c60.48 0 108.608 15.872 144.384 47.488s53.632 68.352 53.632 110.4C692.608 375.68 686.08 397.696 672.96 418.432z" /></svg>