<?xml version="1.0" standalone="no"?><!DOCTYPE svg PUBLIC "-//W3C//DTD SVG 1.1//EN" "http://www.w3.org/Graphics/SVG/1.1/DTD/svg11.dtd"><svg class="icon" width="200px" height="200.00px" viewBox="0 0 1024 1024" version="1.1" xmlns="http://www.w3.org/2000/svg"><path fill="#333333" d="M822.739 547.491h-52.105c3.525-9.314 11.83-31.842 24.919-67.586l1.132-3.398c1.007-2.516 2.266-5.789 3.775-9.817s2.643-7.3 3.398-9.817l4.53 20.767 14.348 69.851zM277.525 522.947l-21.899-111.382c-2.768-13.593-12.208-20.389-28.318-20.389h-101.188l-0.754 4.909c78.283 19.885 129.004 62.173 152.161 126.864v0zM345.111 391.175l-61.167 165.376-6.419-33.604c-6.546-17.619-17.242-33.918-32.093-48.896s-31.338-26.115-49.461-33.415l50.973 192.562h66.076l98.546-242.025h-66.452zM397.593 633.578h62.676l39.267-242.402h-62.676l-39.267 242.402zM687.569 397.217c-17.369-6.796-36.121-10.194-56.257-10.194-30.961 0-56.257 7.425-75.892 22.276-19.634 14.851-29.577 34.109-29.829 57.769-0.252 25.674 17.999 47.574 54.748 65.697 12.083 5.789 20.515 10.949 25.297 15.481 4.783 4.53 7.173 9.44 7.173 14.725 0 7.551-3.775 13.342-11.327 17.369-7.551 4.028-16.236 6.042-26.053 6.042-21.647 0-41.282-4.153-58.901-12.46l-8.306-4.153-8.685 54.371c18.626 8.558 41.91 12.837 69.851 12.837 32.723 0.252 58.964-7.173 78.723-22.276 19.759-15.103 29.891-35.241 30.395-60.413 0-26.682-17.619-48.581-52.86-65.697-12.335-6.293-21.269-11.579-26.809-15.858-5.537-4.279-8.306-9.062-8.306-14.348 0-5.537 3.084-10.383 9.25-14.538 6.166-4.153 15.040-6.229 26.619-6.229 17.619-0.252 33.227 2.768 46.819 9.062l5.664 3.021 8.685-52.482zM848.038 391.175h-48.33c-16.362 0-27.311 6.796-32.849 20.389l-92.882 222.014h65.697l13.215-36.247h80.045c1.259 5.537 3.775 17.619 7.551 36.247h58.146l-50.595-242.402zM946.961 270.353v483.293c0 13.089-4.783 24.416-14.348 33.982-9.564 9.564-20.893 14.348-33.982 14.348h-773.268c-13.089 0-24.416-4.783-33.982-14.348-9.564-9.564-14.348-20.893-14.348-33.982v-483.293c0-13.089 4.783-24.416 14.348-33.982 9.564-9.564 20.893-14.348 33.982-14.348h773.268c13.089 0 24.416 4.783 33.982 14.348 9.564 9.564 14.348 20.893 14.348 33.982v0z" /></svg>