<?xml version="1.0" standalone="no"?><!DOCTYPE svg PUBLIC "-//W3C//DTD SVG 1.1//EN" "http://www.w3.org/Graphics/SVG/1.1/DTD/svg11.dtd"><svg t="1504711627851" class="icon" style="" viewBox="0 0 1024 1024" version="1.1" xmlns="http://www.w3.org/2000/svg" p-id="4789" xmlns:xlink="http://www.w3.org/1999/xlink" width="32" height="32"><defs><style type="text/css"></style></defs><path d="M486.489596 63.016097l65.036177 0 0.009352-31.506035c0 0 6.100551-31.510062-32.518608-31.510062-38.616042 0-32.521725 31.510062-32.521725 31.510062L486.489596 63.016097zM876.749259 409.66303 551.525773 409.66303l0-94.538242 390.266937 0-65.039294-126.048304 65.039294-126.054346L161.278579 63.022138 31.1896 189.073463l130.088979 126.051325 325.211017 0 0 94.538242L161.278579 409.66303l65.046568 126.054346-65.046568 126.045284 325.211017 0 0 346.637871 65.036177 0L551.525773 661.761653l325.223486 0 97.564136-126.048304L876.749259 409.66303zM161.278579 283.608685l-97.567254-94.535221 97.567254-94.541263 747.992406 0-65.036177 94.544283 65.036177 94.532201L161.278579 283.608685zM193.800304 630.249576l65.046568-94.532201-65.046568-94.544283 292.689292 0 0 189.070443 65.036177 0 0-189.070443 325.223486 0 65.042411 94.541263-65.042411 94.535221L193.800304 630.249576z" p-id="4790" fill="#ffd801"></path></svg>