<?xml version="1.0" standalone="no"?><!DOCTYPE svg PUBLIC "-//W3C//DTD SVG 1.1//EN" "http://www.w3.org/Graphics/SVG/1.1/DTD/svg11.dtd"><svg class="icon" width="200px" height="200.00px" viewBox="0 0 1024 1024" version="1.1" xmlns="http://www.w3.org/2000/svg"><path d="M512 512m-512 0a512 512 0 1 0 1024 0 512 512 0 1 0-1024 0Z" fill="#13AC1C" /><path d="M618.948923 414.739692a176.817231 176.817231 0 0 1 19.692308 1.201231c-17.723077-82.579692-105.826462-143.940923-206.424616-143.940923-112.462769 0-204.583385 76.8-204.583384 174.276923 0 56.310154 30.641231 102.508308 81.860923 138.377846l-20.460308 61.646769 71.522462-35.928615A349.538462 349.538462 0 0 0 432.246154 620.701538c6.419692 0 12.8-0.324923 19.101538-0.81723a152.950154 152.950154 0 0 1-6.301538-42.899693c0-89.540923 76.8-162.195692 173.932308-162.195692z m-111.438769-59.736615a31.684923 31.684923 0 1 1-31.635692 31.684923 31.655385 31.655385 0 0 1 31.635692-31.684923z m-143.143385 64a31.684923 31.684923 0 1 1 31.635693-31.684923 31.655385 31.655385 0 0 1-31.635693 31.684923zM804.233846 575.133538c0-81.949538-81.851077-148.745846-173.774769-148.745846-97.339077 0-174.011077 66.796308-174.011077 148.745846s76.672 148.736 174.011077 148.736a256.393846 256.393846 0 0 0 61.380923-10.299076l56.123077 30.798769-15.389539-51.2c41.068308-30.867692 71.660308-71.798154 71.660308-118.016zM576.984615 552.172308a22.567385 22.567385 0 1 1 22.518154-22.567385A22.547692 22.547692 0 0 1 576.984615 552.172308z m112.46277 1.28a22.567385 22.567385 0 1 1 22.528-22.567385 22.537846 22.537846 0 0 1-22.528 22.567385z m0 0" fill="#FFFFFF" /></svg>